<svg width="24" height="17" viewBox="0 0 24 17" fill="none" xmlns="http://www.w3.org/2000/svg">
<path d="M15.6 2.4307C15.2817 2.4307 14.9765 2.55858 14.7515 2.78623C14.5264 3.01387 14.4 3.32262 14.4 3.64456C14.4 3.96649 14.5264 4.27524 14.7515 4.50289C14.9765 4.73053 15.2817 4.85842 15.6 4.85842C15.9183 4.85842 16.2235 4.73053 16.4485 4.50289C16.6736 4.27524 16.8 3.96649 16.8 3.64456C16.8 3.32262 16.6736 3.01387 16.4485 2.78623C16.2235 2.55858 15.9183 2.4307 15.6 2.4307ZM12.204 2.4307C12.4519 1.71994 12.9117 1.10447 13.5199 0.669129C14.1282 0.233784 14.8549 0 15.6 0C16.3451 0 17.0718 0.233784 17.6801 0.669129C18.2883 1.10447 18.7481 1.71994 18.996 2.4307H22.8C23.1183 2.4307 23.4235 2.55858 23.6485 2.78623C23.8736 3.01387 24 3.32262 24 3.64456C24 3.96649 23.8736 4.27524 23.6485 4.50289C23.4235 4.73053 23.1183 4.85842 22.8 4.85842H18.996C18.7481 5.56917 18.2883 6.18464 17.6801 6.61999C17.0718 7.05533 16.3451 7.28912 15.6 7.28912C14.8549 7.28912 14.1282 7.05533 13.5199 6.61999C12.9117 6.18464 12.4519 5.56917 12.204 4.85842H1.2C0.88174 4.85842 0.576516 4.73053 0.351472 4.50289C0.126428 4.27524 0 3.96649 0 3.64456C0 3.32262 0.126428 3.01387 0.351472 2.78623C0.576516 2.55858 0.88174 2.4307 1.2 2.4307H12.204ZM8.4 12.1416C8.08174 12.1416 7.77652 12.2695 7.55147 12.4971C7.32643 12.7248 7.2 13.0335 7.2 13.3554C7.2 13.6774 7.32643 13.9861 7.55147 14.2138C7.77652 14.4414 8.08174 14.5693 8.4 14.5693C8.71826 14.5693 9.02348 14.4414 9.24853 14.2138C9.47357 13.9861 9.6 13.6774 9.6 13.3554C9.6 13.0335 9.47357 12.7248 9.24853 12.4971C9.02348 12.2695 8.71826 12.1416 8.4 12.1416ZM5.004 12.1416C5.25192 11.4308 5.71169 10.8154 6.31992 10.38C6.92815 9.94467 7.6549 9.71089 8.4 9.71089C9.1451 9.71089 9.87185 9.94467 10.4801 10.38C11.0883 10.8154 11.5481 11.4308 11.796 12.1416H22.8C23.1183 12.1416 23.4235 12.2695 23.6485 12.4971C23.8736 12.7248 24 13.0335 24 13.3554C24 13.6774 23.8736 13.9861 23.6485 14.2138C23.4235 14.4414 23.1183 14.5693 22.8 14.5693H11.796C11.5481 15.2801 11.0883 15.8955 10.4801 16.3309C9.87185 16.7662 9.1451 17 8.4 17C7.6549 17 6.92815 16.7662 6.31992 16.3309C5.71169 15.8955 5.25192 15.2801 5.004 14.5693H1.2C0.88174 14.5693 0.576516 14.4414 0.351472 14.2138C0.126428 13.9861 0 13.6774 0 13.3554C0 13.0335 0.126428 12.7248 0.351472 12.4971C0.576516 12.2695 0.88174 12.1416 1.2 12.1416H5.004Z" fill="#FF2F51"/>
</svg>
