<svg width="76" height="76" viewBox="0 0 76 76" fill="none" xmlns="http://www.w3.org/2000/svg">
<path d="M27.1287 41.9727C26.9981 42.0617 26.9031 42.1508 26.7487 42.1033C26.7606 42.3883 26.7665 42.7208 26.5409 42.9524C26.3153 43.178 25.9353 43.2433 25.6503 43.1008C25.7631 43.4867 25.5612 43.9439 25.199 44.122C24.8368 44.3002 24.3559 44.1814 24.1184 43.8549C24.2906 44.8108 22.7053 44.9236 22.159 44.5792C21.9437 44.4409 21.7694 44.2472 21.6545 44.0185C21.5396 43.7897 21.4883 43.5343 21.5059 43.2789C21.5059 43.2552 21.5118 43.2314 21.5 43.2077C21.4881 43.1899 21.4643 43.178 21.4465 43.1661C21.0428 42.9939 20.5737 42.893 20.2353 42.602C19.0478 41.5867 19.9206 39.1702 19.9206 39.1702C20.9893 39.1939 22.0581 39.2236 23.1268 39.2474L25.294 39.3008C26.149 39.3245 26.5943 39.4433 27.0753 40.2449C27.2831 40.5892 27.4968 40.9574 27.4731 41.3611C27.4612 41.5986 27.3187 41.842 27.1287 41.9727Z" fill="url(#paint0_linear_4751_3935)"/>
<path d="M26.9385 41.343C27.2472 42.0495 26.7663 42.388 26.7663 42.388C26.7425 42.0495 26.6 41.628 26.3804 41.3786C26.1132 40.9986 25.8044 40.9749 25.4719 40.8977C25.4719 40.8977 26.5229 40.4049 26.9385 41.343Z" fill="#EDBD82"/>
<path d="M25.656 42.0183C25.9054 42.1786 26.0835 42.4815 26.1251 42.7783C26.1607 43.7283 25.2998 44.0608 25.2998 44.0608C25.4957 43.7046 25.6026 43.2593 25.5373 42.8615C25.5195 42.6596 25.4304 42.4755 25.2998 42.3211C25.1751 42.1608 24.997 42.054 24.8188 41.9471C24.8188 41.953 25.2582 41.769 25.656 42.0183Z" fill="#EDBD82"/>
<path d="M24.2786 42.8924C24.4449 43.1358 24.4686 43.4089 24.4508 43.6464C24.3024 44.5074 23.5602 44.6617 23.5602 44.6617C23.7205 44.3292 23.8274 43.9492 23.8571 43.5811C23.9224 43.2249 23.8274 42.827 23.5127 42.6192C23.5246 42.6192 23.9164 42.4055 24.2786 42.8924Z" fill="#EDBD82"/>
<path d="M22.2954 42.686C22.4676 42.692 22.6457 42.7573 22.7526 42.8879C22.8595 43.0245 22.8773 43.2323 22.7704 43.3629C22.6932 43.4579 22.5567 43.5054 22.4379 43.4698C22.2598 43.4282 22.2004 43.2085 22.2004 43.2085C22.1411 43.2145 21.9926 43.2917 21.6304 43.2738C21.1911 43.256 20.6982 42.876 20.6982 42.876C20.722 42.8642 21.2386 42.9948 21.7017 42.7988C21.8679 42.7395 22.1173 42.686 22.2954 42.686Z" fill="#EDBD82"/>
<path d="M51.9114 73.3945C53.7996 73.3945 54.6189 73.3885 54.6189 73.3885C54.8861 73.3885 55.1118 73.1748 55.1177 72.9076L55.1414 72.201C55.1414 70.2535 53.7283 70.4613 52.9446 70.3188C51.9827 70.1407 51.3711 69.446 51.0505 68.9532C50.8843 68.7038 45.2436 66.887 45.2436 66.887C43.9789 69.4995 43.8305 70.9067 43.8543 71.8804L43.8899 72.9195C43.8958 73.1867 44.1215 73.4004 44.3886 73.4004L46.3955 73.3945C46.6746 73.3945 46.8943 73.1688 46.8943 72.8957C46.8943 72.7473 46.9418 72.6107 47.0368 72.5038C47.1733 72.3554 47.5593 72.2663 47.8918 72.3495C49.9283 72.866 49.5246 73.3945 51.9114 73.3945Z" fill="black"/>
<path d="M25.2637 73.3945C27.1518 73.3945 27.9712 73.3885 27.9712 73.3885C28.2384 73.3885 28.464 73.1748 28.4699 72.9076L28.4937 72.201C28.4937 70.2535 27.0806 70.4613 26.2968 70.3188C25.3349 70.1407 24.7234 69.446 24.4027 68.9532C24.2365 68.7038 18.5959 66.887 18.5959 66.887C17.3312 69.4995 17.1827 70.9067 17.2065 71.8804L17.2421 72.9195C17.2481 73.1867 17.4737 73.4004 17.7409 73.4004L19.7477 73.3945C20.0268 73.3945 20.2465 73.1688 20.2465 72.8957C20.2465 72.7473 20.294 72.6107 20.389 72.5038C20.5256 72.3554 20.9115 72.2663 21.244 72.3495C23.2865 72.866 22.8827 73.3945 25.2637 73.3945Z" fill="black"/>
<path d="M51.8996 9.63645C50.7834 9.00707 49.8215 9.5177 49.1921 10.6221L46.4668 18.2577L38.0593 20.8939C37.2696 21.8974 37.9702 23.9458 38.6827 25.0561C39.5199 26.3624 40.2027 26.9918 41.4734 26.6771C41.4734 26.6771 46.1699 24.9255 48.5627 23.8033C50.5815 22.8593 51.3118 22.5327 51.8521 20.413C52.3865 18.2933 53.5087 12.7893 53.5087 12.7893C54.138 11.6908 53.0159 10.2658 51.8996 9.63645Z" fill="#1A1B27"/>
<path d="M54.7555 13.4905L53.9837 8.8236L49.7443 7.99829L48.3134 12.867C50.2134 14.292 54.7555 13.4905 54.7555 13.4905Z" fill="#00BFA5"/>
<path d="M41.6573 22.0338C50.3617 26.8906 51.2879 38.1303 51.2879 38.1303C51.2879 38.1303 46.4607 41.3425 42.3045 41.3425C38.1482 41.3425 39.3179 29.3785 39.3179 29.3785C39.3179 29.3785 30.9995 16.0903 41.6573 22.0338Z" fill="#242532"/>
<path d="M40.5825 22.7295C49.1266 27.438 50.3675 38.7014 50.3675 38.7014C50.3675 38.7014 46.4666 41.3436 42.3103 41.3436C38.1541 41.3436 39.3238 29.3795 39.3238 29.3795C39.3238 29.3795 29.895 16.8336 40.5825 22.7295Z" fill="black"/>
<path d="M29.9902 41.3425C28.8027 45.4987 27.3955 51.4065 26.018 53.6747C23.3817 58.0328 15.9064 65.9237 15.9064 65.9237C19.1127 70.5075 26.3149 70.3115 26.3149 70.3115C26.3149 70.3115 29.0521 60.8234 36.3671 52.2318C38.5461 49.6728 39.5377 49.4115 40.2086 49.9103C41.7108 51.0325 46.4786 56.299 46.4786 56.299C45.5702 59.0243 41.2002 68.2453 41.2002 68.2453C45.8967 71.7247 52.4874 70.2284 52.4874 70.2284C52.4874 70.2284 52.8971 65.5912 53.5383 58.1337C53.8114 54.969 53.8708 53.0631 52.1964 50.9434C51.1811 49.655 47.6661 45.5759 46.2174 43.0525C45.3624 41.5622 45.0714 39.1218 45.0714 37.4772C45.0714 37.4772 43.8008 37.6493 43.3971 37.6493H31.7061C31.0411 37.6672 31.6171 35.6543 29.9902 41.3425Z" fill="url(#paint1_linear_4751_3935)"/>
<path d="M37.1922 45.2258C37.1922 45.2258 38.3797 41.6633 38.8013 37.323C39.2941 32.2227 37.7563 26.9918 34.9122 22.7287C34.2056 21.6718 33.6297 21.0187 32.4422 21.5115C31.8069 21.7727 30.8628 22.6752 30.1859 22.7287C28.9984 22.8177 27.0925 25.3352 27.2647 26.6593C27.2647 26.6593 30.5184 33.3687 30.6075 35.2983C30.7263 37.9346 28.6363 41.3308 27.6981 42.7202C27.4606 43.0705 27.5913 43.5455 27.9713 43.7237C29.3725 44.4005 32.7391 45.6712 37.1922 45.2258Z" fill="#1A1B27"/>
<path d="M36.385 45.368L36.9668 45.4926C37.3171 42.993 37.9643 35.4939 34.2356 31.6761L36.2306 29.5029C34.004 28.4045 31.059 28.3689 31.059 28.3689L30.489 28.2026L30.5009 28.8855L31.0531 28.9626C31.0768 28.9626 33.2856 28.9983 35.2271 29.7167L33.4162 31.6879C33.4162 31.6879 37.9406 36.3608 36.385 45.368Z" fill="#787878"/>
<path d="M34.2296 21.4758C30.2752 21.2977 28.6959 21.1552 25.8755 22.972C23.934 24.2249 22.1171 25.3114 20.3358 26.4989C18.5546 27.6864 17.3671 28.8739 17.9608 31.8427C18.3112 33.5883 20.3358 40.1552 20.3358 40.1552C20.3358 40.1552 23.8508 39.3714 23.7558 38.1067L23.2987 30.6136L30.9284 27.9061C31.9496 27.1402 31.8427 23.8449 30.9937 22.7345L34.2296 21.4758Z" fill="#1A1B27"/>
<path d="M38.7422 38.7016C39.3597 26.1498 35.061 24.6238 33.161 26.1498C32.3891 26.7732 30.4 29.2254 30.4 29.2254C30.4 29.2254 30.1328 22.516 30.8453 21.3523C31.5578 20.1826 33.6597 20.0044 34.9185 19.8026C36.1238 19.6066 37.0916 20.0104 38.3028 20.2776C44.0503 21.5541 44.4363 23.4898 44.4363 23.4898C44.4363 23.4898 41.6219 22.6051 41.5506 23.7391C41.5091 24.3863 42.7856 25.4491 43.7297 28.0082C44.6738 30.5673 45.0775 32.4613 45.0775 38.1969L38.7422 38.7016Z" fill="url(#paint2_linear_4751_3935)"/>
<path d="M17.2007 37.3166L19.6647 40.7248L23.8329 39.2701L23.7379 35.2385C19.4926 34.4251 17.2007 37.3166 17.2007 37.3166Z" fill="#75DACC"/>
<path d="M38.2018 30.2107C37.7506 29.3141 37.2637 28.4532 36.7293 27.6753C36.189 26.9213 35.5122 26.2207 34.8056 26.1494C34.6275 26.1435 34.4553 26.1375 34.2712 26.185C34.105 26.2207 33.9268 26.3097 33.7428 26.4225C33.3628 26.6363 33.0006 26.951 32.6265 27.2478C32.2525 27.5507 31.8903 27.8832 31.54 28.2275C31.16 28.5482 30.8156 28.9044 30.4237 29.231L30.3762 29.1953C30.964 28.3938 31.5934 27.616 32.294 26.9094C32.6443 26.5591 33.0184 26.2207 33.434 25.9416C33.8437 25.6566 34.3662 25.4903 34.8768 25.5557C35.3875 25.621 35.8447 25.9 36.2068 26.2444C36.575 26.5888 36.8659 27.0044 37.1212 27.4319C37.6259 28.2928 37.9881 29.231 38.2612 30.1869L38.2018 30.2107Z" fill="#009688"/>
<path d="M34.2179 19.7959L37.7091 20.3184L39.3598 26.1431C39.3598 26.1431 33.6716 23.2218 32.3832 20.74L31.9735 20.17L34.2179 19.7959Z" fill="#EDC391"/>
<path d="M40.6719 12.8376L39.1459 12.7604L30.875 12.3626L29.3491 12.2855C28.1259 12.2261 27.0809 13.2354 27.0216 14.5239C26.9622 15.8123 27.9122 16.9167 29.1294 16.9761L30.6553 17.0533L38.9203 17.457L40.4462 17.5342C41.6694 17.5936 42.7144 16.5842 42.7737 15.2958C42.8391 14.0014 41.8891 12.897 40.6719 12.8376Z" fill="#EDC391"/>
<path d="M35.4825 4.19177C31.8784 4.01364 28.3634 7.67708 28.1081 13.1811C27.8528 18.6555 31.1659 21.5293 34.675 21.7015C38.1781 21.8736 41.7406 19.3324 41.9959 13.858C42.2453 8.35395 39.0865 4.36989 35.4825 4.19177Z" fill="#F9DDBD"/>
<path d="M30.2518 12.3804C30.2518 12.3804 30.7268 11.7273 31.7718 11.7273C32.9296 11.7273 33.3808 12.5467 33.3808 12.5467C33.4818 12.6951 33.4343 12.897 33.2858 12.992C33.1968 13.0514 33.084 13.0573 32.989 13.0217L32.9296 12.9979C32.9296 12.9979 32.3952 12.5585 31.6055 12.6298C30.994 12.6832 30.7743 12.8435 30.7565 12.8495C30.6793 12.8851 30.6377 12.897 30.6377 12.897C30.4655 12.9564 30.2696 12.8673 30.2102 12.6951C30.19 12.6434 30.1832 12.5874 30.1904 12.5324C30.1977 12.4774 30.2188 12.4251 30.2518 12.3804Z" fill="#454140"/>
<path d="M39.6982 13.283C39.6982 13.283 39.3835 13.0158 38.5938 12.9565C37.9407 12.909 37.4716 13.2118 37.4716 13.2118L37.4122 13.2296C37.24 13.283 37.056 13.1821 37.0085 13.0099C36.9788 12.903 36.9788 12.8258 37.0679 12.719C37.2104 12.5349 37.7329 12.054 38.5641 12.054C39.5675 12.054 39.9832 12.5468 40.2029 12.8615C40.3097 13.0158 40.2563 13.2474 40.096 13.3186C39.9832 13.3721 39.8169 13.378 39.6982 13.283Z" fill="#454140"/>
<path d="M32.7579 14.3217C32.7607 13.7413 32.3058 13.2686 31.7417 13.2659C31.1777 13.2631 30.7182 13.7314 30.7154 14.3119C30.7126 14.8923 31.1676 15.365 31.7316 15.3677C32.2956 15.3704 32.7551 14.9021 32.7579 14.3217Z" fill="#312D2D"/>
<path d="M39.5678 14.6591C39.5706 14.0787 39.1157 13.606 38.5517 13.6033C37.9876 13.6005 37.5281 14.0688 37.5253 14.6493C37.5225 15.2297 37.9775 15.7024 38.5415 15.7051C39.1055 15.7079 39.565 15.2395 39.5678 14.6591Z" fill="#312D2D"/>
<path d="M36.664 18.3112C35.9872 18.6675 33.8259 18.5606 33.1787 18.139C32.8106 17.8956 32.4068 18.2221 32.5493 18.5725C32.6859 18.9168 33.8318 19.754 34.8531 19.8015C35.8743 19.849 37.0737 19.1306 37.2459 18.7981C37.4181 18.4715 37.05 18.1093 36.664 18.3112Z" fill="#444444"/>
<path d="M35.7143 16.3759C35.6944 16.3646 35.6719 16.3584 35.6489 16.3581L34.1824 16.2869C34.1601 16.2874 34.1381 16.2914 34.1171 16.2987C33.9805 16.3462 33.9033 16.4769 33.9568 16.6253C34.0102 16.7737 34.2833 17.1953 34.8711 17.225C35.4589 17.2547 35.7677 16.8569 35.8389 16.7203C35.9102 16.5719 35.8449 16.4353 35.7143 16.3759Z" fill="#DBA689"/>
<path d="M42.0849 2.51134C42.0374 2.49946 41.984 2.47571 41.9305 2.46384C41.7524 2.43415 41.509 2.43415 41.4199 2.60634C40.9093 3.65134 39.1874 3.99571 37.4002 3.76415C36.8005 3.68696 34.5918 4.81509 34.0812 5.22478C33.4755 5.71165 38.3977 8.3004 38.3977 8.3004C40.2146 8.55571 41.4199 11.0613 42.358 9.92134C45.0893 6.61415 43.1715 3.11696 42.0849 2.51134Z" fill="url(#paint3_radial_4751_3935)"/>
<path d="M35.4172 3.48579C35.4172 3.48579 35.4113 3.48579 35.4172 3.48579H35.4113C26.3922 3.20672 27.645 13.5202 27.645 13.5202C27.645 13.5202 28.0132 14.5948 28.1794 15.0698C28.2032 15.1411 28.3041 15.1352 28.3219 15.0639C28.5475 14.2089 29.5747 11.2342 29.9607 10.3198C30.1863 9.77954 30.7622 9.48266 31.3382 9.60735C32.2169 9.79735 33.6182 10.0467 35.1678 10.1061H35.2035C36.7532 10.1595 38.1722 10.017 39.0569 9.88641C39.6328 9.80329 40.191 10.1417 40.375 10.6939C40.6897 11.632 41.515 14.7492 41.6813 15.6339C41.6932 15.7052 41.7941 15.717 41.8238 15.6517L42.2216 14.0902C42.2097 14.0902 44.4303 3.85985 35.4172 3.48579Z" fill="black"/>
<path d="M35.4172 3.48579C35.4172 3.48579 35.4113 3.48579 35.4172 3.48579H35.4113C26.3922 3.20672 27.645 13.5202 27.645 13.5202C27.645 13.5202 28.0132 14.5948 28.1794 15.0698C28.2032 15.1411 28.3041 15.1352 28.3219 15.0639C28.5475 14.2089 29.5747 11.2342 29.9607 10.3198C30.1863 9.77954 30.7622 9.48266 31.3382 9.60735C32.2169 9.79735 33.6182 10.0467 35.1678 10.1061H35.2035C36.7532 10.1595 38.1722 10.017 39.0569 9.88641C39.6328 9.80329 40.191 10.1417 40.375 10.6939C40.6897 11.632 41.515 14.7492 41.6813 15.6339C41.6932 15.7052 41.7941 15.717 41.8238 15.6517L42.2216 14.0902C42.2097 14.0902 44.4303 3.85985 35.4172 3.48579Z" fill="url(#paint4_radial_4751_3935)"/>
<path d="M50.8782 4.71389C50.8782 4.71389 50.8247 3.7342 51.7332 3.7817C52.7425 3.83514 52.4516 4.79701 52.4516 4.79701L50.8782 4.71389Z" fill="url(#paint5_linear_4751_3935)"/>
<path d="M49.4416 7.21906L49.3229 6.99937C49.1566 5.42594 49.2872 3.08063 49.4891 1.22219C49.5841 0.343437 49.9819 0.21875 50.2135 0.21875C50.5222 0.21875 50.9022 0.402812 50.9319 1.25187C50.9557 1.86937 50.9497 2.46906 50.9379 3.05094C50.926 3.75156 50.9141 4.41656 50.9794 4.93906L50.8666 4.95688L49.5366 7.06469C49.5426 7.11219 49.5485 7.15969 49.5485 7.20719L49.4416 7.21906Z" fill="url(#paint6_linear_4751_3935)"/>
<path d="M49.685 5.92439C49.7859 5.77001 50.0234 5.35439 50.1065 5.24157C51.0031 4.72501 52.1431 5.15845 52.3271 5.0872L52.4578 4.3272C52.5231 3.97689 52.9387 3.8047 53.3128 3.91157C54.0312 4.11939 53.9421 4.68345 53.9421 4.68345C53.9659 4.68939 54.2212 4.33907 54.7615 4.44595C55.8362 4.6597 55.6343 9.70657 52.155 9.51657C52.155 9.51657 51.9115 9.52251 51.7512 9.49282C49.9165 9.21376 49.6434 8.31126 49.495 7.89564C49.394 7.61064 49.3406 7.30189 49.3168 6.99907C49.299 6.68439 49.489 6.21532 49.685 5.92439Z" fill="url(#paint7_linear_4751_3935)"/>
<path d="M52.6654 6.67282C52.9801 6.76782 53.0633 6.60751 53.2354 6.50063C53.3958 6.99345 53.9836 6.99938 53.9836 7.0172C53.9598 7.26064 53.6629 7.89595 53.4967 8.06814C52.9148 8.67376 52.4933 8.45407 52.4933 8.45407C52.4933 8.45407 51.8758 7.5872 51.7154 7.36751C51.5551 7.14782 51.0148 6.73814 51.0089 6.70845C50.9911 6.48282 51.0564 6.2097 51.1751 6.1147C51.2583 6.04345 52.1667 6.02563 52.1667 6.02563C52.1667 6.02563 52.2558 6.55407 52.6654 6.67282Z" fill="url(#paint8_linear_4751_3935)"/>
<path d="M54.5418 6.33432C54.4884 6.42932 54.423 6.54807 54.3399 6.64901C54.2509 6.75589 54.1559 6.8212 54.0193 6.85089C53.8887 6.88057 53.7877 6.79745 53.7284 6.6787C53.6809 6.5837 53.6749 6.47089 53.6749 6.36401C53.6749 6.26901 53.6809 6.16807 53.6987 6.07307C53.7699 5.62182 54.0074 5.21214 54.0727 4.76089C54.0787 4.70745 54.0846 4.64807 54.043 4.60651C54.0295 4.59246 54.0118 4.58314 53.9926 4.57993C53.9733 4.57672 53.9535 4.5798 53.9362 4.5887C53.8649 4.62432 53.8234 4.76682 53.7877 4.83214C53.7402 4.93307 53.6927 5.03995 53.6452 5.14089C53.5384 5.37245 53.4374 5.60995 53.3365 5.84745L53.2118 6.15026L53.1821 6.22151C53.1762 6.23339 53.1821 6.23339 53.1524 6.28682C53.1405 6.31651 53.1227 6.3462 53.093 6.37589C52.998 6.4887 52.8437 6.5362 52.7071 6.4887C52.5705 6.45307 52.4637 6.32245 52.434 6.17401C52.428 6.13839 52.428 6.09682 52.428 6.06714L52.4459 5.91276C52.4577 5.83557 52.4637 5.75245 52.4696 5.67526L52.4755 5.5862C52.4993 5.29526 52.5052 4.99245 52.5468 4.70745C52.5646 4.60057 52.5705 4.4937 52.5705 4.38682C52.5705 4.34526 52.5646 4.30964 52.5527 4.27401C52.5349 4.22651 52.4696 4.16714 52.4162 4.20276C52.3746 4.22651 52.3865 4.28589 52.3805 4.32745C52.3568 4.47589 52.3152 4.61839 52.2855 4.76682C52.2321 5.02214 52.1846 5.28339 52.143 5.5387L52.1312 5.60995C52.1193 5.69307 52.1015 5.7762 52.0896 5.85932L52.0659 6.03151C52.0418 6.21168 52.0823 6.39455 52.18 6.54776C52.2778 6.70098 52.4267 6.81466 52.6002 6.8687C52.7427 6.91026 52.8971 6.91026 53.0396 6.8687C53.1524 6.83307 53.2534 6.76182 53.3365 6.6787C53.3424 6.69651 53.3365 6.72026 53.3424 6.73807C53.3662 6.83307 53.4077 6.92214 53.473 6.99339C53.5324 7.0587 53.6037 7.11807 53.6987 7.15964C53.7818 7.2012 53.8709 7.22495 53.9599 7.23682C54.0549 7.2487 54.1559 7.23682 54.2449 7.2012C54.3993 7.14776 54.5299 7.04089 54.6546 6.88057C54.7674 6.7262 54.6665 6.87464 54.8684 6.47682C54.993 6.1562 55.0465 5.80589 55.1296 5.47339C55.1474 5.39026 55.1652 5.3012 55.1296 5.22401C55.1177 5.19432 55.088 5.16464 55.0524 5.16464C55.0109 5.16464 54.9871 5.2062 54.9693 5.24182C54.9277 5.33682 54.8921 5.43776 54.8802 5.5387C54.8684 5.6337 54.8327 5.70495 54.7971 5.79401C54.714 5.97214 54.6368 6.1562 54.5418 6.33432Z" fill="#EDBD82"/>
<path d="M49.3229 6.99956C49.2694 7.89018 49.9641 8.763 50.3144 9.00643C51.0863 9.53487 52.3807 9.58831 52.446 9.523C52.4638 9.50518 52.4282 8.79862 52.4401 8.65018C52.4935 8.07425 52.0363 7.41518 51.5376 7.1005C51.3297 6.96987 50.7419 6.35831 51.7157 6.26331C52.351 6.198 52.7547 5.94268 52.8497 5.65768C52.9447 5.37268 52.5885 4.9155 52.4163 4.89175C52.4163 4.89175 50.2669 4.1555 49.6316 5.8655C49.501 6.198 49.3407 6.68487 49.3229 6.99956Z" fill="url(#paint9_linear_4751_3935)"/>
<path d="M52.2143 4.64806C52.0065 4.60056 51.7868 4.57087 51.5552 4.56493C51.3237 4.559 51.0981 4.57087 50.8902 4.6065C50.6171 4.654 50.4152 4.71931 50.2371 4.82025C49.8571 5.034 49.6909 5.40212 49.5484 5.79993C49.4712 6.00775 49.4118 6.22743 49.3702 6.44712C49.3524 6.554 49.3346 6.66087 49.3227 6.76775C49.3168 6.82712 49.3346 7.02306 49.3049 7.06462C49.6731 6.58962 49.7859 5.96025 50.1481 5.48525C50.2252 5.38431 50.3143 5.29525 50.4152 5.21806C50.8962 4.86775 51.5731 4.87368 52.1312 4.99837C52.3627 5.05181 52.5231 5.11712 52.6359 5.20618C52.6893 5.24775 52.7249 5.30118 52.7249 5.34275C52.7249 5.35462 52.7249 5.3665 52.719 5.39618C52.719 5.41993 52.7131 5.44368 52.7131 5.4615C52.7071 5.509 52.6952 5.55056 52.6834 5.59212C52.6418 5.72868 52.5349 5.94837 52.3984 6.01962C52.2559 6.09681 52.0599 6.05525 51.9174 6.02556C51.7927 6.00181 51.6621 5.97212 51.5374 5.94837C51.4424 5.93056 51.3356 5.91275 51.2643 5.97212C51.2346 5.99587 51.2109 6.0315 51.1931 6.06712C51.1159 6.2215 51.0565 6.38775 51.0268 6.554C50.9971 6.70243 51.0446 6.78556 51.1337 6.91025C51.2524 7.0765 51.4187 7.20118 51.579 7.33775C51.8521 7.56931 52.1193 7.84243 52.2202 8.18681C52.2618 8.31743 52.2737 8.454 52.3152 8.57868C52.3331 8.62618 52.3568 8.67368 52.4043 8.6915C52.4696 8.70931 52.529 8.644 52.5468 8.57868C52.6359 8.21056 52.4577 7.83056 52.2499 7.53368C52.0006 7.18337 51.7096 6.89243 51.3296 6.68462C51.4187 6.56587 51.4781 6.42931 51.5077 6.28681C51.4959 6.34025 51.9946 6.34618 52.0421 6.34618C52.3627 6.35806 52.6537 6.29868 52.8852 6.04931C52.9565 5.97212 53.0159 5.88306 53.0515 5.78806C53.1109 5.62775 53.099 5.44962 53.0871 5.27743C53.0752 5.11712 52.9684 5.02806 52.8556 4.92712C52.6477 4.76681 52.4162 4.69556 52.2143 4.64806Z" fill="#EDBD82"/>
<defs>
<linearGradient id="paint0_linear_4751_3935" x1="21.541" y1="39.0499" x2="26.2254" y2="44.2269" gradientUnits="userSpaceOnUse">
<stop offset="0.5" stop-color="#F9DDBD"/>
<stop offset="1" stop-color="#FFD29C"/>
</linearGradient>
<linearGradient id="paint1_linear_4751_3935" x1="34.7959" y1="37.3179" x2="34.7959" y2="70.5483" gradientUnits="userSpaceOnUse">
<stop/>
<stop offset="0.852538" stop-color="#171A1E"/>
</linearGradient>
<linearGradient id="paint2_linear_4751_3935" x1="37.7138" y1="40.5025" x2="37.7138" y2="25.9128" gradientUnits="userSpaceOnUse">
<stop offset="0.116" stop-color="#00AB94"/>
<stop offset="0.377" stop-color="#00B29A"/>
<stop offset="1" stop-color="#00BFA5"/>
</linearGradient>
<radialGradient id="paint3_radial_4751_3935" cx="0" cy="0" r="1" gradientUnits="userSpaceOnUse" gradientTransform="translate(35.857 8.21883) rotate(9.735) scale(4.43353)">
<stop stop-opacity="0"/>
<stop offset="1"/>
</radialGradient>
<radialGradient id="paint4_radial_4751_3935" cx="0" cy="0" r="1" gradientUnits="userSpaceOnUse" gradientTransform="translate(34.9422 11.523) scale(7.95625 8.07241)">
<stop offset="0.646" stop-opacity="0"/>
<stop offset="1" stop-color="#454140"/>
<stop offset="1"/>
</radialGradient>
<linearGradient id="paint5_linear_4751_3935" x1="50.8782" y1="4.2852" x2="52.4926" y2="4.2852" gradientUnits="userSpaceOnUse">
<stop offset="0.5" stop-color="#F9DDBD"/>
<stop offset="1" stop-color="#FFD29C"/>
</linearGradient>
<linearGradient id="paint6_linear_4751_3935" x1="49.2475" y1="3.72069" x2="50.9848" y2="3.72069" gradientUnits="userSpaceOnUse">
<stop offset="0.5" stop-color="#F9DDBD"/>
<stop offset="1" stop-color="#FFD29C"/>
</linearGradient>
<linearGradient id="paint7_linear_4751_3935" x1="49.321" y1="6.70042" x2="55.3422" y2="6.70042" gradientUnits="userSpaceOnUse">
<stop offset="0.5" stop-color="#F9DDBD"/>
<stop offset="1" stop-color="#FFD29C"/>
</linearGradient>
<linearGradient id="paint8_linear_4751_3935" x1="51.9589" y1="6.33017" x2="53.4968" y2="8.03804" gradientUnits="userSpaceOnUse">
<stop stop-color="#FFD29C"/>
<stop offset="0.355" stop-color="#FED4A3" stop-opacity="0.645"/>
<stop offset="0.884" stop-color="#FADBB8" stop-opacity="0.116"/>
<stop offset="1" stop-color="#F9DDBD" stop-opacity="0"/>
</linearGradient>
<linearGradient id="paint9_linear_4751_3935" x1="49.8765" y1="8.5708" x2="53.1507" y2="5.62223" gradientUnits="userSpaceOnUse">
<stop offset="0.5" stop-color="#F9DDBD"/>
<stop offset="1" stop-color="#FFD29C"/>
</linearGradient>
</defs>
</svg>
