<svg width="41" height="40" viewBox="0 0 41 40" fill="none" xmlns="http://www.w3.org/2000/svg">
<path fill-rule="evenodd" clip-rule="evenodd" d="M33.8718 5.14565C28.9594 2.82258 23.3453 4.92678 20.6528 9.84338C17.9635 4.92678 12.3494 2.82258 7.43539 5.14565C2.05599 7.69025 -0.446036 14.582 1.85586 20.5396C6.01168 31.9703 20.3747 39.1811 20.6512 39.3946V39.3999L20.6528 39.3982L20.6544 39.3999L20.656 39.3946C27.729 35.3364 37.9796 26.4456 40.2582 20.5396C42.5585 14.582 39.2529 7.69025 33.8718 5.14565Z" fill="url(#paint0_linear_4751_3044)"/>
<path d="M19.5727 5.6132C16.3727 1.6132 12.3726 0.0129817 7.57233 1.61325C2.0475 3.45504 -1.2276 9.61287 2.7724 18.4129C5.9724 25.4529 15.3057 32.5462 19.5724 35.2129C22.5058 33.3462 29.4926 28.333 33.9726 23.213C39.5726 16.813 40.3727 9.87956 37.1727 5.61289C34.7727 2.41289 25.9727 -2.38711 17.9727 10.4129" stroke="black" stroke-width="1.5"/>
<defs>
<linearGradient id="paint0_linear_4751_3044" x1="0.0148664" y1="0.7714" x2="50.9301" y2="1.75844" gradientUnits="userSpaceOnUse">
<stop stop-color="#FF7354"/>
<stop offset="0.424645" stop-color="#FF3052"/>
<stop offset="0.868911" stop-color="#FF1B5F"/>
</linearGradient>
</defs>
</svg>
