<svg width="20" height="20" viewBox="0 0 20 20" fill="none" xmlns="http://www.w3.org/2000/svg">
<path fill-rule="evenodd" clip-rule="evenodd" d="M2.5 8.12499C2.5 7.31958 3.15292 6.66666 3.95833 6.66666H4.16667C4.85702 6.66666 5.41667 6.10701 5.41667 5.41666C5.41667 4.7263 5.97631 4.16666 6.66667 4.16666H13.3333C14.0237 4.16666 14.5833 4.7263 14.5833 5.41666C14.5833 6.10701 15.143 6.66666 15.8333 6.66666H16.0417C16.8471 6.66666 17.5 7.31957 17.5 8.12499V14.1667C17.5 15.0871 16.7538 15.8333 15.8333 15.8333H4.16667C3.24619 15.8333 2.5 15.0871 2.5 14.1667V8.12499ZM10 14.1666C11.8409 14.1666 13.3333 12.6742 13.3333 10.8332C13.3333 8.99229 11.8409 7.49991 10 7.49991C8.15905 7.49991 6.66667 8.99229 6.66667 10.8332C6.66667 12.6742 8.15905 14.1666 10 14.1666ZM4.72209 9.99991C5.18232 9.99991 5.55542 9.62681 5.55542 9.16657C5.55542 8.70634 5.18232 8.33324 4.72209 8.33324C4.26185 8.33324 3.88875 8.70634 3.88875 9.16657C3.88875 9.62681 4.26185 9.99991 4.72209 9.99991ZM10 13.3332C11.3807 13.3332 12.5 12.214 12.5 10.8332C12.5 9.45253 11.3807 8.33324 10 8.33324C8.61929 8.33324 7.5 9.45253 7.5 10.8332C7.5 12.214 8.61929 13.3332 10 13.3332Z" fill="white"/>
</svg>
