<svg width="76" height="76" viewBox="0 0 76 76" fill="none" xmlns="http://www.w3.org/2000/svg">
<path d="M38.3859 6.32814C36.759 3.87002 33.814 2.54002 30.7027 2.8547C27.5915 3.16939 24.9731 5.06939 23.8687 7.80658C23.1977 9.47501 22.9721 11.47 23.1918 13.9163C23.3937 16.22 23.2927 16.8256 21.7371 17.9775C19.4393 19.6935 18.5071 22.0506 19.3027 24.1347C20.0568 26.1178 22.1765 27.3231 24.8068 27.3231C25.0621 27.3231 25.3234 27.3113 25.5906 27.2875C31.1481 26.8006 35.2212 24.2713 37.7031 19.7706C37.7684 19.6578 37.8159 19.5688 37.8515 19.5035C40.0187 16.0122 40.9509 10.2053 38.3859 6.32814Z" fill="#543930"/>
<path d="M39.7753 14.0779C39.5793 16.251 38.3859 18.6557 37.8456 19.5107C37.8099 19.576 37.7624 19.6651 37.6971 19.7779C35.2153 24.2785 31.1421 26.8079 25.5846 27.2948C25.3234 27.3185 25.0621 27.3304 24.8068 27.3304C22.1706 27.3304 19.9737 26.1548 19.3028 24.1419C18.3884 21.3988 20.1281 19.2079 21.1909 18.4301C22.8237 17.2366 23.4768 16.6607 23.2453 14.3391C24.5753 23.1504 39.3953 16.3104 39.7159 14.4757C39.7396 14.3451 39.7634 14.2085 39.7753 14.0779Z" fill="url(#paint0_radial_4751_3985)"/>
<path d="M40.6364 20.033C39.5617 20.6861 38.1902 20.9295 37.1155 20.9295C36.7533 20.9295 36.4208 20.8998 36.1536 20.8523C35.067 20.6505 34.0695 20.5673 33.1552 20.5673C28.0014 20.5673 25.478 23.2451 25.478 23.2451L28.987 28.7076C30.6852 29.2301 32.4545 29.5211 33.9923 29.5211C34.7642 29.5211 35.4767 29.4498 36.1002 29.2955C39.627 28.4226 41.3073 25.7686 41.3073 25.7686L40.6364 20.033Z" fill="#FED09B"/>
<path d="M50.4213 16.5591H50.4273C49.1745 12.7888 47.2329 10.6929 46.0038 7.73602C45.986 7.68258 45.9682 7.64695 45.9504 7.59352C46.1998 7.36789 46.467 7.11852 46.7935 6.80977C46.7935 6.80977 48.4976 4.96914 49.7682 4.0132C50.0295 3.81133 49.9048 3.30664 49.5307 3.30664H49.4951C48.6104 3.47883 46.5145 5.27195 46.5145 5.27195C46.4195 4.99883 46.2235 4.89789 46.0098 4.89789C45.6832 4.89789 45.2973 5.12352 45.0598 5.33133L43.2488 6.92852C42.7501 7.36789 42.7323 7.94977 42.9698 8.37133C42.9876 8.45445 43.0113 8.54352 43.047 8.64445L45.0538 14.7126C45.2557 15.3479 45.4398 15.9951 45.606 16.6423C43.4388 18.1741 38.4335 21.1013 38.4335 21.1013C38.4335 21.1013 39.8348 25.5307 40.3276 25.5307H40.3573C40.9985 25.5307 42.1267 25.1626 42.6254 24.7707C45.416 22.6035 48.3432 20.2166 49.7088 19.0885L49.7029 19.0945C50.0532 18.8273 50.3263 18.471 50.4688 18.0198C50.6292 17.521 50.5935 17.0163 50.4213 16.5591Z" fill="url(#paint1_linear_4751_3985)"/>
<path d="M28.3518 38.2605C28.3458 38.2427 28.3339 38.2308 28.3221 38.213L28.0786 38.3911C28.0727 38.3852 28.0727 38.3852 28.0727 38.3793L28.3221 38.213C28.3043 38.1833 28.2864 38.1596 28.2627 38.1299C28.2382 38.0955 28.2104 38.0637 28.1796 38.0349C28.1439 37.9874 28.1143 37.9518 28.0668 37.8983L23.7383 33.1958C23.4533 32.8811 23.1861 32.5546 22.913 32.228C25.0208 30.3577 29.0643 27.2761 29.0643 27.2761C29.0643 27.2761 27.1464 23.1555 26.6418 23.1555H26.6299C25.9946 23.1555 24.908 23.7077 24.4568 24.1649C21.963 26.6705 19.3683 29.3899 18.1571 30.6843L18.163 30.6665C17.8543 30.9752 17.6286 31.3611 17.5396 31.8243C17.4089 32.5368 17.6405 33.2196 18.0918 33.7124H18.0858L18.1511 33.7777C18.1571 33.7836 18.163 33.7955 18.1749 33.8015C20.8349 36.6515 23.3286 37.7143 25.6443 39.8874C25.7274 39.9705 25.8105 40.0358 25.8996 40.0893C25.8283 40.4336 25.7511 40.8196 25.668 41.2886C25.668 41.2886 25.383 43.7765 24.9258 45.3024C24.8486 45.5518 25.0743 45.8071 25.3177 45.8071C25.4008 45.8071 25.4839 45.7774 25.5552 45.7121C26.1668 45.053 26.7961 42.3633 26.7961 42.3633C26.9089 42.4405 27.0218 42.4761 27.1227 42.4761C27.5502 42.4761 27.8471 41.8705 27.9361 41.4549L28.4527 39.0977C28.4824 38.9493 28.4883 38.8127 28.4764 38.688C28.4883 38.5574 28.4468 38.4149 28.3518 38.2605Z" fill="url(#paint2_linear_4751_3985)"/>
<path d="M55.8422 39.8108L55.8541 40.0428C55.9969 39.9178 55.9969 39.8227 55.8422 39.8108Z" fill="url(#paint3_linear_4751_3985)"/>
<path d="M55.8542 40.0421C55.1001 40.7249 50.3263 42.4468 44.187 39.0328C41.812 37.7146 40.3395 35.8384 40.0248 33.6831C39.7101 31.5278 41.1232 30.1384 41.2717 28.1909C41.3192 27.5496 41.2598 27.0153 41.1232 26.564C42.0376 26.1246 43.0885 25.2578 43.0945 25.044C43.136 24.1712 42.6907 23.3518 42.2217 22.6215C41.717 21.8318 41.147 21.0718 40.3929 20.5196C40.197 20.3771 39.7576 20.1159 39.5201 20.1871C37.537 20.7809 37.1629 20.7393 35.4292 20.7393L34.8948 20.674C35.8329 21.7606 38.0595 26.5343 35.9042 27.5378C33.7488 28.5412 29.0404 21.2084 29.0404 21.2084C27.5798 21.6121 24.5338 23.3637 23.0851 25.0499C22.996 25.1509 23.1385 25.3171 23.2038 25.4359C23.946 26.8431 25.2523 28.2324 26.4992 29.224C26.6298 29.3309 26.7723 29.4378 26.9326 29.4674C27.0751 29.4971 27.5798 29.1706 27.936 28.9153C28.7495 29.8534 29.4857 30.744 29.9251 31.3556C30.4238 31.9731 31.742 34.3303 31.261 36.2718C27.7698 43.6106 31.1067 45.0356 31.4807 47.5946C32.2467 52.8493 26.1132 65.7634 15.7226 65.7634L20.621 68.5837L29.9251 67.9721L35.067 63.5487L42.1326 62.4918L44.6263 57.3796L47.1023 50.4684L56.1095 44.5309L55.8542 40.0421Z" fill="url(#paint4_linear_4751_3985)"/>
<path d="M31.5993 57.3389C30.768 57.8257 29.8952 58.7342 28.9986 60.2482C28.2208 61.5604 26.3683 64.8914 24.9374 65.1645C23.6014 65.4198 21.7371 64.8023 21.0661 63.5792L20.7811 63.0626L19.7421 63.6326L20.0271 64.1551C20.8286 65.6217 22.5921 66.2867 24.1774 66.2867C24.5158 66.2867 24.8424 66.257 25.1511 66.1976C27.1936 65.8057 28.7552 62.6232 29.5271 61.2873C30.0971 60.3017 30.673 59.6129 31.2608 59.1439C31.2074 58.5679 31.3321 57.9445 31.5993 57.3389Z" fill="#FF8F00"/>
<path d="M43.9316 41.7637C45.2201 41.6924 46.3838 42.0784 46.3838 42.0784L45.9385 41.7815C45.2438 41.449 43.7476 40.6949 42.4235 40.7899C42.8629 41.3243 43.4448 41.5262 43.9316 41.7637Z" fill="#FF8F00"/>
<path d="M39.039 50.4689C40.2324 53.2535 42.4115 58.0926 40.4224 59.476C40.0246 59.7551 39.1518 59.6126 37.9999 59.007C37.1152 58.5439 36.1415 57.7839 35.0905 57.3029C35.233 57.772 35.3636 58.247 35.4111 58.7101C36.2483 59.0426 37.044 59.5117 37.7743 59.8976C39.0924 60.5923 40.1493 60.9545 41.1586 60.0876C43.7118 57.8967 41.2655 54.1739 40.078 51.1932C38.9321 48.3254 39.033 46.2295 39.9414 44.5907C39.4546 44.4542 38.9974 44.2879 38.558 44.1335C37.8218 46.0514 38.1305 48.3492 39.039 50.4689Z" fill="#FF8F00"/>
<path d="M41.8593 42.4523C42.4649 41.9832 43.219 41.8051 43.9315 41.7635C43.4387 41.526 42.8627 41.3242 42.4293 40.7898C42.1027 40.8135 41.7821 40.8848 41.4912 41.0332C39.9771 41.7992 39.0508 42.8857 38.564 44.1326C38.9974 44.287 39.4605 44.4532 39.9474 44.5898C40.3987 43.7764 41.0518 43.0757 41.8593 42.4523Z" fill="#FFB600"/>
<path d="M31.599 57.3381C31.3259 57.9437 31.2072 58.5731 31.2547 59.1431C32.6559 58.0209 34.0809 58.1812 35.4109 58.7096C35.3575 58.2465 35.2328 57.7715 35.0903 57.3024C34.0097 56.8037 32.8459 56.6078 31.599 57.3381Z" fill="#FFB600"/>
<path d="M50.4686 44.1202V43.8293C52.2914 43.4909 51.7274 41.0921 51.6621 40.6943L52.7961 40.4924C52.8317 40.7121 53.188 42.6418 52.1964 43.6927C51.9114 43.9956 50.4686 44.1381 50.4686 44.1202Z" fill="#FF8F00"/>
<path d="M58.134 38.2374C61.4293 37.8337 63.9824 41.3427 62.783 44.4599C62.3852 45.4871 61.6549 46.1046 60.8593 46.4134C60.8534 46.4193 60.8415 46.4193 60.8355 46.4252C60.224 46.6746 60.2952 47.589 60.9305 47.7731C61.4115 47.9156 62.2012 47.4287 63.0146 47.8799C63.9409 48.3906 64.6771 49.1862 64.6534 50.6349C64.6237 52.2737 63.9349 53.8649 62.4209 54.2687C60.1587 54.8624 59.6777 56.9109 59.6005 59.4581C59.5709 60.4793 59.3096 62.0824 58.0271 62.9671C53.6393 66.0012 50.8012 61.8093 47.4465 63.6084C41.6455 66.7137 45.2318 73.1677 30.6196 68.8393C27.1402 67.8121 21.3749 75.0737 16.3755 72.0396C12.3974 69.6231 13.5908 66.6602 15.1346 65.6152C18.234 63.5312 18.7446 67.7824 25.6737 67.3965C29.2718 67.1946 28.4049 61.1324 33.244 59.6777C37.0618 58.5318 38.6352 64.0002 41.5565 61.459C46.158 57.4512 39.4783 51.2168 41.2596 46.7637C42.364 43.9968 44.6737 42.459 47.0487 43.0527C49.4237 43.6465 49.2277 45.4752 50.7596 45.9206C52.4399 46.4134 53.4671 44.7627 53.8293 43.5456C54.4349 41.509 54.8684 38.6412 58.134 38.2374Z" fill="url(#paint5_radial_4751_3985)"/>
<path d="M59.5118 68.6311C60.4737 69.2368 62.3559 71.113 62.8724 72.1224C63.0209 72.4133 63.1574 73.1199 62.9615 73.3752C62.7953 73.589 59.0724 73.8086 56.4006 72.2946C56.169 72.164 55.8721 71.6771 55.7771 71.4871C55.599 71.1308 55.3318 71.0893 55.2903 71.4633C54.9399 71.4455 54.6906 71.4752 54.3403 71.4574C54.0909 69.029 53.6753 69.2961 53.7168 67.5921C53.7524 66.2086 54.7024 65.9118 55.0765 65.7693C55.1359 65.7455 58.0928 67.5861 59.5118 68.6311Z" fill="#DD2C00"/>
<path d="M59.5352 67.4733C59.0127 66.2264 58.4843 64.9736 57.9618 63.7267C55.8837 58.7749 54.9277 56.6255 52.6062 51.7805C52.3865 51.2995 51.9768 51.1155 51.4959 51.1155C50.819 51.1155 49.9937 51.4777 49.3168 51.8933C48.1115 52.6355 47.0249 53.3302 47.8621 54.6602C49.5424 57.3142 53.3127 61.6249 54.613 64.4867C55.3255 66.0542 55.3255 67.7108 56.4715 68.9874C56.9821 69.5574 57.3502 69.9433 58.1043 70.0739C58.3596 70.1214 58.6209 70.1511 58.8643 70.1511C59.4105 70.1511 59.8677 69.9908 59.9627 69.4683C60.0518 68.9874 59.7252 67.9245 59.5352 67.4733Z" fill="#F9DDBD"/>
<path d="M35.6785 72.0571C35.4292 70.5489 34.1585 68.073 32.787 68.073C31.4154 68.073 30.032 70.5489 29.7826 72.0571C29.747 72.2589 29.7351 72.9121 29.7351 73.0724C29.7351 73.0783 29.741 73.0842 29.741 73.0842C29.7529 73.3099 29.9964 73.6186 30.3407 73.6186C31.172 73.6186 31.9498 73.6186 32.7217 73.6245C33.4935 73.6245 34.2714 73.6186 35.1026 73.6186C35.4648 73.6186 35.7142 73.2802 35.7023 73.0546V73.0486C35.7023 72.8942 35.7082 72.253 35.6785 72.0571Z" fill="#B41301"/>
<path d="M34.1703 63.8984C33.4519 63.8984 32.8106 64.0647 32.7156 64.4209C32.4959 65.2581 31.8428 67.4491 31.6231 68.6544C31.2847 69.8419 31.7003 70.2872 32.9115 70.5128C33.0422 70.5366 33.1609 70.5484 33.2737 70.5484C34.0634 70.5484 34.3959 69.9488 34.6631 69.0403L36.3137 64.9791C36.5275 64.2844 35.2628 63.8984 34.1703 63.8984Z" fill="#F3C48F"/>
<path d="M34.2063 19.6704L30.6794 19.9792L30.8516 21.9148C30.9229 22.7401 31.6235 23.3635 32.4488 23.3635C32.4963 23.3635 32.5438 23.3635 32.5913 23.3576L32.9119 23.3279C33.1214 23.3107 33.3254 23.2523 33.5123 23.1561C33.6992 23.0599 33.8652 22.9277 34.0009 22.7672C34.1366 22.6067 34.2393 22.421 34.3031 22.2207C34.3668 22.0204 34.3905 21.8095 34.3726 21.6001L34.2063 19.6704Z" fill="#F2C087"/>
<path d="M38.2969 12.6405C37.8575 7.68269 34.9007 5.43237 31.7657 5.43237C31.5757 5.43237 31.3797 5.43831 31.1838 5.45612C27.8469 5.74706 24.9732 8.50206 25.4363 13.7627C25.8044 17.9961 28.6485 20.2642 30.9997 20.8699C31.4332 20.9827 31.8488 21.0361 32.2288 21.0361C32.3357 21.0361 32.4425 21.0302 32.5494 21.0242C33.0125 20.9827 33.5291 20.8402 34.0575 20.6027C36.2663 19.5992 38.665 16.868 38.2969 12.6405Z" fill="#FDD4A5"/>
<path d="M31.332 15.6154C31.3498 15.6035 31.3736 15.5976 31.3914 15.5917L32.7451 15.4729C32.7689 15.4729 32.7867 15.4788 32.8104 15.4848C32.9351 15.5263 33.0182 15.6451 32.9707 15.7876C32.9233 15.9301 32.6858 16.3338 32.1454 16.3813C31.5992 16.4288 31.2964 16.0726 31.2311 15.942C31.1539 15.8113 31.2133 15.6748 31.332 15.6154Z" fill="#F1B26A"/>
<path d="M35.1523 14.4725C35.675 14.4268 36.0605 13.9527 36.0133 13.4137C35.9662 12.8747 35.5043 12.4748 34.9816 12.5205C34.4589 12.5662 34.0734 13.0402 34.1206 13.5792C34.1677 14.1182 34.6296 14.5182 35.1523 14.4725Z" fill="#404040"/>
<path d="M28.8469 15.0249C29.3695 14.9792 29.755 14.5052 29.7079 13.9662C29.6608 13.4272 29.1989 13.0273 28.6762 13.073C28.1535 13.1187 27.768 13.5927 27.8151 14.1317C27.8623 14.6707 28.3242 15.0706 28.8469 15.0249Z" fill="#404040"/>
<path d="M33.5114 11.862C33.6717 11.6067 34.0577 11.2267 34.8652 11.1555C35.6727 11.0842 36.118 11.393 36.3199 11.6186C36.4089 11.7195 36.3971 11.8383 36.3496 11.9214C36.3021 11.9926 36.1596 12.0698 35.9874 12.0283C35.8152 11.9867 35.4767 11.8442 34.9305 11.8917C34.3842 11.9451 34.0755 12.1411 33.9092 12.2123C33.7489 12.2836 33.5886 12.2361 33.5352 12.1708C33.4979 12.129 33.4754 12.0762 33.4712 12.0204C33.4669 11.9646 33.481 11.909 33.5114 11.862Z" fill="#6D4C41"/>
<path d="M27.2055 12.4145C27.3658 12.1592 27.7517 11.7792 28.5592 11.7079C29.3667 11.6367 29.812 11.9454 30.0139 12.1711C30.103 12.272 30.0911 12.3908 30.0436 12.4739C29.9961 12.5451 29.8536 12.6223 29.6814 12.5808C29.5092 12.5392 29.1708 12.3967 28.6245 12.4442C28.0783 12.4976 27.7695 12.6936 27.6033 12.7648C27.443 12.8361 27.2827 12.7886 27.2292 12.7233C27.1699 12.6461 27.1342 12.5214 27.2055 12.4145Z" fill="#6D4C41"/>
<path d="M30.5961 17.2598C31.2374 17.5685 33.2383 17.3963 33.8202 16.9807C34.1527 16.7432 34.5386 17.0282 34.4199 17.3607C34.3071 17.6873 33.2739 18.5066 32.3299 18.5898C31.3858 18.6729 30.2458 18.0376 30.0736 17.7407C29.9014 17.432 30.228 17.0816 30.5961 17.2598Z" fill="#795548"/>
<path d="M24.0895 16.3524C24.3685 13.3777 23.9826 12.3564 24.0657 11.2699C24.137 10.3496 24.4338 4.29331 31.0245 3.71737C38.5592 3.05831 38.9926 9.97549 38.9926 9.97549L39.1767 12.4396C39.1767 12.4396 39.1232 13.9121 38.4701 15.6933C37.811 17.4805 37.2945 18.1455 37.4726 17.2489C37.6685 16.2574 37.8407 14.9036 37.7279 13.6152C37.6804 13.0511 37.6745 10.9374 36.4692 10.7771C32.0457 10.1833 29.3917 8.09331 29.3917 8.09331C28.8751 9.54206 26.9988 11.0799 26.3279 11.6558C25.7757 12.1308 26.0132 13.8705 26.0904 14.6127L26.6545 17.9911C25.9063 17.5992 24.5348 17.1005 24.0895 16.3524Z" fill="#543930"/>
<path d="M39.7811 14.0469C39.7811 14.0588 39.7811 14.0647 39.7751 14.0766C39.7633 14.2072 39.7395 14.3438 39.7158 14.4744C39.3951 16.3091 24.5751 23.1491 23.2451 14.3378C23.2214 14.2013 23.2036 14.0588 23.1917 13.9163C23.1858 13.8628 23.1798 13.8094 23.1798 13.7619C23.1679 13.661 23.162 13.566 23.162 13.471C22.9839 11.2325 23.2392 9.37408 23.8745 7.80658C24.9729 5.06939 27.5914 3.16939 30.7026 2.8547C33.8139 2.54002 36.7529 3.87002 38.3858 6.32814C39.8464 8.53689 40.1729 11.3691 39.7811 14.0469Z" fill="url(#paint6_radial_4751_3985)"/>
<defs>
<radialGradient id="paint0_radial_4751_3985" cx="0" cy="0" r="1" gradientUnits="userSpaceOnUse" gradientTransform="translate(29.8879 18.5706) rotate(147.181) scale(12.0337 7.70752)">
<stop offset="0.782" stop-color="#6D4C41" stop-opacity="0"/>
<stop offset="1" stop-color="#6D4C41"/>
</radialGradient>
<linearGradient id="paint1_linear_4751_3985" x1="46.9595" y1="1.54395" x2="44.5026" y2="25.5307" gradientUnits="userSpaceOnUse">
<stop stop-color="#FADCBB"/>
<stop offset="1" stop-color="#FFCB8E"/>
</linearGradient>
<linearGradient id="paint2_linear_4751_3985" x1="22.1287" y1="37.7677" x2="28.7567" y2="31.2501" gradientUnits="userSpaceOnUse">
<stop offset="0.10255" stop-color="#FFC98B"/>
<stop offset="0.471641" stop-color="#F9DDBD"/>
<stop offset="1" stop-color="#F3C48F"/>
</linearGradient>
<linearGradient id="paint3_linear_4751_3985" x1="56.0129" y1="39.8185" x2="55.6144" y2="40.0838" gradientUnits="userSpaceOnUse">
<stop stop-color="#BC1B00"/>
<stop offset="0.29" stop-color="#E31C00"/>
<stop offset="0.693" stop-color="#BC1B00"/>
<stop offset="0.914" stop-color="#DD1C00"/>
</linearGradient>
<linearGradient id="paint4_linear_4751_3985" x1="30.0302" y1="23.7122" x2="34.8176" y2="47.9812" gradientUnits="userSpaceOnUse">
<stop stop-color="#BC1B00"/>
<stop offset="0.213" stop-color="#E31C00"/>
<stop offset="0.507" stop-color="#BC1B00"/>
<stop offset="0.875" stop-color="#DD1C00"/>
</linearGradient>
<radialGradient id="paint5_radial_4751_3985" cx="0" cy="0" r="1" gradientUnits="userSpaceOnUse" gradientTransform="translate(39.9266 58.8964) scale(28.117)">
<stop stop-color="#892002"/>
<stop offset="0.537" stop-color="#B42002"/>
<stop offset="1" stop-color="#892002"/>
</radialGradient>
<radialGradient id="paint6_radial_4751_3985" cx="0" cy="0" r="1" gradientUnits="userSpaceOnUse" gradientTransform="translate(31.2777 13.1652) rotate(90) scale(10.5337 9.66153)">
<stop offset="0.869" stop-color="#6D4C41" stop-opacity="0"/>
<stop offset="1" stop-color="#6D4C41"/>
</radialGradient>
</defs>
</svg>
